<?xml version="1.0" encoding="UTF-8" standalone="no"?>
<!-- Created with Inkscape (http://www.inkscape.org/) -->

<svg
   xmlns:osb="http://www.openswatchbook.org/uri/2009/osb"
   xmlns:dc="http://purl.org/dc/elements/1.1/"
   xmlns:cc="http://creativecommons.org/ns#"
   xmlns:rdf="http://www.w3.org/1999/02/22-rdf-syntax-ns#"
   xmlns:svg="http://www.w3.org/2000/svg"
   xmlns="http://www.w3.org/2000/svg"
   xmlns:sodipodi="http://sodipodi.sourceforge.net/DTD/sodipodi-0.dtd"
   xmlns:inkscape="http://www.inkscape.org/namespaces/inkscape"
   width="104.2972"
   height="60.946018"
   id="svg2985"
   version="1.1"
   inkscape:version="0.48.5 r10040"
   inkscape:export-filename="C:\Users\domin_000.ACL-LUETJOHANN\Desktop\bitmap.png"
   inkscape:export-xdpi="45"
   inkscape:export-ydpi="45"
   sodipodi:docname="chemotion.svg">
  <defs
     id="defs2987">
    <linearGradient
       id="linearGradient4131"
       osb:paint="solid">
      <stop
         style="stop-color:#8d00ab;stop-opacity:1;"
         offset="0"
         id="stop4133" />
    </linearGradient>
    <clipPath
       clipPathUnits="userSpaceOnUse"
       id="clipPath3391">
      <path
         d="m 400.937,355.84 33.154,0 0,-38.933 -33.154,0 0,38.933 z"
         id="path3393"
         inkscape:connector-curvature="0" />
    </clipPath>
    <clipPath
       clipPathUnits="userSpaceOnUse"
       id="clipPath3375">
      <path
         d="m 377.1,379.684 73.072,0 0,-86.619 -73.072,0 0,86.619 z"
         id="path3377"
         inkscape:connector-curvature="0" />
    </clipPath>
  </defs>
  <sodipodi:namedview
     id="base"
     pagecolor="#ffffff"
     bordercolor="#666666"
     borderopacity="1.0"
     inkscape:pageopacity="0.0"
     inkscape:pageshadow="2"
     inkscape:zoom="7.71"
     inkscape:cx="-3.5834737"
     inkscape:cy="35.81165"
     inkscape:current-layer="layer1"
     showgrid="true"
     inkscape:document-units="px"
     inkscape:grid-bbox="true"
     inkscape:window-width="2560"
     inkscape:window-height="990"
     inkscape:window-x="1909"
     inkscape:window-y="-11"
     inkscape:window-maximized="1"
     fit-margin-top="0"
     fit-margin-left="0"
     fit-margin-right="0"
     fit-margin-bottom="0" />
  <metadata
     id="metadata2990">
    <rdf:RDF>
      <cc:Work
         rdf:about="">
        <dc:format>image/svg+xml</dc:format>
        <dc:type
           rdf:resource="http://purl.org/dc/dcmitype/StillImage" />
        <dc:title></dc:title>
      </cc:Work>
    </rdf:RDF>
  </metadata>
  <g
     id="layer1"
     inkscape:label="Layer 1"
     inkscape:groupmode="layer"
     transform="translate(-1.8302984,-1.6011797)">
    <path
       sodipodi:type="arc"
       style="fill:#ffffff;fill-opacity:1"
       id="path3907"
       sodipodi:cx="32.166019"
       sodipodi:cy="31.963684"
       sodipodi:rx="30.479897"
       sodipodi:ry="30.479897"
       d="m 62.645916,31.963684 c 0,16.833582 -13.646315,30.479897 -30.479897,30.479897 -16.833582,0 -30.4798961,-13.646315 -30.4798961,-30.479897 0,-16.833582 13.6463141,-30.4798965 30.4798961,-30.4798965 16.833582,0 30.479897,13.6463145 30.479897,30.4798965 z"
       transform="matrix(0.99361702,0,0,0.99361702,0.39986754,0.39857604)" />
    <g
       transform="matrix(0.48708105,0,0,-0.48708105,-172.38274,195.91579)"
       style="display:inline"
       id="g3371">
      <g
         id="g3373" />
      <g
         id="g3379">
        <g
           style="opacity:0.89999402"
           id="g3381"
           clip-path="url(#clipPath3375)">
          <g
             id="g3383"
             transform="translate(420.3984,300.5264)">
            <path
               inkscape:connector-curvature="0"
               id="path3385"
               style="fill:#2495cf;fill-opacity:1;fill-rule:nonzero;stroke:none"
               d="m 0,0 c -19.759,0 -35.843,16.083 -35.843,35.852 0,19.77 16.084,35.854 35.843,35.854 9.178,0 17.826,-3.427 24.499,-9.669 l 5.274,5.272 C 21.699,74.957 11.174,79.157 0,79.157 c -23.874,0 -43.299,-19.426 -43.299,-43.307 0,-23.881 19.425,-43.311 43.299,-43.311 11.178,0 21.699,4.197 29.768,11.847 L 24.486,9.659 C 17.83,3.422 9.18,0 0,0" />
          </g>
        </g>
      </g>
    </g>
    <g
       transform="matrix(0.48708105,0,0,-0.48708105,-172.38274,195.91579)"
       style="display:inline"
       id="g3387">
      <g
         id="g3389" />
      <g
         id="g3395">
        <g
           style="opacity:0.89999402"
           id="g3397"
           clip-path="url(#clipPath3391)">
          <g
             id="g3399"
             transform="translate(431.0391,325.5942)">
            <path
               inkscape:connector-curvature="0"
               id="path3401"
               style="fill:#ee474e;fill-opacity:1;fill-rule:nonzero;stroke:none"
               d="m 0,0 c -2.73,-2.697 -6.49,-4.375 -10.641,-4.375 -8.363,0 -15.142,6.785 -15.142,15.157 0,8.367 6.779,15.151 15.142,15.151 4.151,0 7.911,-1.671 10.641,-4.375 l 3.052,3.053 c -3.525,3.483 -8.36,5.635 -13.693,5.635 -10.742,0 -19.462,-8.717 -19.462,-19.464 0,-10.751 8.72,-19.47 19.462,-19.47 5.333,0 10.168,2.159 13.693,5.645 L 0,0 z" />
          </g>
        </g>
      </g>
    </g>
    <g
       style="display:inline"
       transform="matrix(0.48708105,0,0,-0.48708105,32.385366,17.032881)"
       id="g3403">
      <path
         inkscape:connector-curvature="0"
         id="path3405"
         style="fill:#d8e037;fill-opacity:1;fill-rule:nonzero;stroke:none"
         d="m 0,0 c -8.555,0 -16.306,-3.486 -21.896,-9.117 l 4.843,-4.839 c 4.348,4.386 10.384,7.114 17.053,7.114 13.288,0 24.046,-10.757 24.046,-24.036 0,-13.276 -10.758,-24.041 -24.046,-24.041 -6.669,0 -12.705,2.726 -17.053,7.121 l -4.843,-4.838 c 5.594,-5.633 13.341,-9.121 21.896,-9.121 17.064,0 30.885,13.825 30.885,30.879 C 30.885,-13.821 17.064,0 0,0" />
    </g>
    <path
       d="m 32.303585,58.476661 c -14.582232,0 -26.4027147,-11.821458 -26.4027147,-26.402716 0,-14.581745 11.8204827,-26.4022287 26.4027147,-26.4022287 14.582234,0 26.403204,11.8204837 26.403204,26.4022287 0,14.581258 -11.82097,26.402716 -26.403204,26.402716 m 9.39e-4,-56.8754813 c -16.830111,0 -30.4742256,13.6431413 -30.4742256,30.4727653 0,16.830599 13.6441146,30.473252 30.4742256,30.473252 16.829625,0 30.472279,-13.642653 30.472279,-30.473252 0,-16.829624 -13.642654,-30.4727653 -30.472279,-30.4727653"
       style="fill:#4f5659;fill-opacity:1;fill-rule:nonzero;stroke:none;display:inline"
       id="path3449"
       inkscape:connector-curvature="0" />
    <text
       xml:space="preserve"
       style="font-size:14px;font-style:normal;font-variant:normal;font-weight:bold;font-stretch:normal;text-align:start;line-height:100%;letter-spacing:0px;word-spacing:0px;writing-mode:lr-tb;text-anchor:start;fill:#ff5555;fill-opacity:1;stroke:none;font-family:Arial;-inkscape-font-specification:Arial Bold"
       x="41.36187"
       y="37.003342"
       id="text3039"
       sodipodi:linespacing="100%"><tspan
         sodipodi:role="line"
         id="tspan3041"
         x="41.36187"
         y="37.003342">hemotion</tspan></text>
  </g>
</svg>
