<svg xmlns="http://www.w3.org/2000/svg" id="Ebene_1" data-name="Ebene 1" viewBox="0 0 273.97 267.48"><defs><style>.cls-1{fill:#fff;}</style></defs><path class="cls-1" d="M86.87,85A33.4,33.4,0,0,1,99.29,76.2a41.71,41.71,0,0,1,16.13-3,39.12,39.12,0,0,1,17.4,3.8A30.81,30.81,0,0,1,145.31,88a37.4,37.4,0,0,1,14.11-11,44.47,44.47,0,0,1,18.66-3.88q17.05,0,27.11,10t10.05,30.15v52H188.89v-48q0-10.8-4.47-16.13T171.66,96q-9.28,0-14.69,6t-5.41,17.82v45.6H125.21v-48Q125.21,96,108,96q-9.12,0-14.53,6c-3.6,4-6.59,7.24-6.59,7.24"></path><circle class="cls-1" cx="63.43" cy="108.31" r="4.47"></circle><circle class="cls-1" cx="77.4" cy="108.31" r="4.47"></circle><circle class="cls-1" cx="63.43" cy="121.49" r="4.47"></circle><circle class="cls-1" cx="77.4" cy="121.49" r="4.47"></circle><circle class="cls-1" cx="63.64" cy="134.66" r="4.47"></circle><circle class="cls-1" cx="77.61" cy="134.66" r="4.47"></circle><circle class="cls-1" cx="63.43" cy="147.83" r="4.47"></circle><circle class="cls-1" cx="77.4" cy="147.83" r="4.47"></circle><circle class="cls-1" cx="63.43" cy="161.01" r="4.47"></circle><circle class="cls-1" cx="77.4" cy="161.01" r="4.47"></circle><circle class="cls-1" cx="63.19" cy="95.31" r="4.47"></circle><circle class="cls-1" cx="77.17" cy="95.31" r="4.47"></circle><circle class="cls-1" cx="63.33" cy="82.17" r="4.47"></circle><circle class="cls-1" cx="77.3" cy="82.17" r="4.47"></circle><path class="cls-1" d="M61.22,183.14l.07,1.14a3.94,3.94,0,0,1,3.16-1.35,3,3,0,0,1,3,1.69,3.91,3.91,0,0,1,3.37-1.69,3.41,3.41,0,0,1,2.7,1,4.36,4.36,0,0,1,.91,3v7.22H72V187a2.22,2.22,0,0,0-.46-1.53A2,2,0,0,0,70,185a2.09,2.09,0,0,0-1.38.46,2.37,2.37,0,0,0-.74,1.18v7.53H65.44v-7.23a1.77,1.77,0,0,0-2-1.94,2.18,2.18,0,0,0-2.1,1.21v8H58.89v-11Z"></path><path class="cls-1" d="M76.52,188.53a6.55,6.55,0,0,1,.64-2.91,4.71,4.71,0,0,1,1.8-2,5.1,5.1,0,0,1,2.66-.7,4.78,4.78,0,0,1,3.61,1.44,5.66,5.66,0,0,1,1.5,3.79v.58a6.47,6.47,0,0,1-.63,2.9,4.51,4.51,0,0,1-1.78,2,5.09,5.09,0,0,1-2.69.7,4.76,4.76,0,0,1-3.72-1.54,6,6,0,0,1-1.4-4.13Zm2.47.21a4.42,4.42,0,0,0,.7,2.66,2.3,2.3,0,0,0,2,.95,2.24,2.24,0,0,0,1.94-1,4.83,4.83,0,0,0,.7-2.85,4.35,4.35,0,0,0-.72-2.64,2.41,2.41,0,0,0-3.86,0A4.84,4.84,0,0,0,79,188.74Z"></path><path class="cls-1" d="M91.45,194.12H89V178.53h2.47Z"></path><path class="cls-1" d="M99,194.32a5.12,5.12,0,0,1-3.8-1.47,5.38,5.38,0,0,1-1.46-3.94v-.3a6.62,6.62,0,0,1,.63-2.94,4.86,4.86,0,0,1,1.79-2,4.6,4.6,0,0,1,2.55-.73,4.29,4.29,0,0,1,3.47,1.44,6,6,0,0,1,1.22,4v1H96.2a3.23,3.23,0,0,0,.91,2.15,2.71,2.71,0,0,0,2,.79,3.32,3.32,0,0,0,2.76-1.37l1.33,1.27a4.43,4.43,0,0,1-1.76,1.53A5.53,5.53,0,0,1,99,194.32Zm-.3-9.41a2.11,2.11,0,0,0-1.64.71,3.73,3.73,0,0,0-.79,2h4.7v-.18a3.07,3.07,0,0,0-.66-1.87A2.05,2.05,0,0,0,98.67,184.91Z"></path><path class="cls-1" d="M109.8,192.35a2.19,2.19,0,0,0,1.53-.53,1.82,1.82,0,0,0,.65-1.33h2.33a3.64,3.64,0,0,1-.64,1.91,4.24,4.24,0,0,1-1.63,1.41,4.88,4.88,0,0,1-2.21.51,4.65,4.65,0,0,1-3.65-1.49,5.91,5.91,0,0,1-1.35-4.12v-.25a5.8,5.8,0,0,1,1.34-4,4.65,4.65,0,0,1,3.65-1.51,4.51,4.51,0,0,1,3.19,1.15,4.06,4.06,0,0,1,1.3,3H112a2.26,2.26,0,0,0-.64-1.56,2.1,2.1,0,0,0-1.54-.61,2.18,2.18,0,0,0-1.85.87,4.49,4.49,0,0,0-.66,2.64v.39a4.53,4.53,0,0,0,.65,2.67A2.17,2.17,0,0,0,109.8,192.35Z"></path><path class="cls-1" d="M122.82,193a3.79,3.79,0,0,1-3.08,1.28,3.42,3.42,0,0,1-2.71-1,4.48,4.48,0,0,1-.92-3v-7.11h2.47v7.08c0,1.4.58,2.09,1.74,2.09a2.45,2.45,0,0,0,2.42-1.28v-7.89h2.47v11h-2.33Z"></path><path class="cls-1" d="M130.35,194.12h-2.47V178.53h2.47Z"></path><path class="cls-1" d="M137.87,194.32a5.12,5.12,0,0,1-3.8-1.47,5.38,5.38,0,0,1-1.46-3.94v-.3a6.62,6.62,0,0,1,.63-2.94,4.86,4.86,0,0,1,1.79-2,4.6,4.6,0,0,1,2.55-.73,4.31,4.31,0,0,1,3.47,1.44,6,6,0,0,1,1.22,4v1H135.1a3.23,3.23,0,0,0,.91,2.15,2.7,2.7,0,0,0,2,.79,3.32,3.32,0,0,0,2.76-1.37l1.33,1.27a4.43,4.43,0,0,1-1.76,1.53A5.53,5.53,0,0,1,137.87,194.32Zm-.3-9.41a2.11,2.11,0,0,0-1.64.71,3.73,3.73,0,0,0-.79,2h4.7v-.18a3.07,3.07,0,0,0-.66-1.87A2.05,2.05,0,0,0,137.57,184.91Z"></path><path class="cls-1" d="M155.93,194.12a4,4,0,0,1-.29-1,4.16,4.16,0,0,1-5.58.28,3,3,0,0,1-1-2.34,3.11,3.11,0,0,1,1.3-2.69,6.29,6.29,0,0,1,3.73-.94h1.51v-.72a1.94,1.94,0,0,0-.47-1.36,1.89,1.89,0,0,0-1.46-.52,2.18,2.18,0,0,0-1.38.42,1.29,1.29,0,0,0-.53,1.07h-2.47a2.75,2.75,0,0,1,.6-1.69,4,4,0,0,1,1.63-1.23,5.65,5.65,0,0,1,2.3-.45,4.63,4.63,0,0,1,3.07,1,3.46,3.46,0,0,1,1.18,2.73v5a5.77,5.77,0,0,0,.41,2.37v.17Zm-2.71-1.78a2.77,2.77,0,0,0,1.37-.35,2.36,2.36,0,0,0,1-1V189h-1.33a3.62,3.62,0,0,0-2.06.48,1.55,1.55,0,0,0-.69,1.35,1.44,1.44,0,0,0,.47,1.13A1.85,1.85,0,0,0,153.22,192.34Z"></path><path class="cls-1" d="M166.36,185.39a6.53,6.53,0,0,0-1-.08,2.27,2.27,0,0,0-2.29,1.3v7.51h-2.46v-11H163l.06,1.23a2.78,2.78,0,0,1,2.48-1.44,2.19,2.19,0,0,1,.87.15Z"></path><path class="cls-1" d="M172.24,192.35a2.19,2.19,0,0,0,1.53-.53,1.82,1.82,0,0,0,.65-1.33h2.33a3.64,3.64,0,0,1-.64,1.91,4.24,4.24,0,0,1-1.63,1.41,4.88,4.88,0,0,1-2.21.51,4.65,4.65,0,0,1-3.65-1.49,5.91,5.91,0,0,1-1.35-4.12v-.25a5.8,5.8,0,0,1,1.34-4,4.65,4.65,0,0,1,3.65-1.51,4.51,4.51,0,0,1,3.19,1.15,4.06,4.06,0,0,1,1.3,3h-2.33a2.26,2.26,0,0,0-.64-1.56,2.1,2.1,0,0,0-1.54-.61,2.18,2.18,0,0,0-1.85.87,4.49,4.49,0,0,0-.66,2.64v.39a4.53,4.53,0,0,0,.65,2.67A2.17,2.17,0,0,0,172.24,192.35Z"></path><path class="cls-1" d="M181,184.33a3.88,3.88,0,0,1,3.06-1.4q3.51,0,3.56,4v7.18h-2.47V187a2.14,2.14,0,0,0-.49-1.6,2,2,0,0,0-1.45-.48,2.38,2.38,0,0,0-2.21,1.32v7.85h-2.47V178.53H181Z"></path><path class="cls-1" d="M190.16,180.28a1.31,1.31,0,0,1,.36-.94,1.36,1.36,0,0,1,1-.38,1.37,1.37,0,0,1,1,.38,1.28,1.28,0,0,1,.37.94,1.23,1.23,0,0,1-.37.93,1.37,1.37,0,0,1-1,.37,1.35,1.35,0,0,1-1-.37A1.26,1.26,0,0,1,190.16,180.28Zm2.62,13.84h-2.47v-11h2.47Z"></path><path class="cls-1" d="M199.33,191l2.33-7.85h2.55l-3.81,11h-2.14l-3.84-11H197Z"></path><path class="cls-1" d="M210.45,194.32a5.12,5.12,0,0,1-3.8-1.47,5.38,5.38,0,0,1-1.46-3.94v-.3a6.48,6.48,0,0,1,.64-2.94,4.77,4.77,0,0,1,1.78-2,4.63,4.63,0,0,1,2.56-.73,4.28,4.28,0,0,1,3.46,1.44,6,6,0,0,1,1.23,4v1h-7.18a3.28,3.28,0,0,0,.91,2.15,2.71,2.71,0,0,0,2,.79,3.32,3.32,0,0,0,2.76-1.37l1.33,1.27a4.36,4.36,0,0,1-1.76,1.53A5.53,5.53,0,0,1,210.45,194.32Zm-.29-9.41a2.08,2.08,0,0,0-1.64.71,3.66,3.66,0,0,0-.8,2h4.7v-.18a3,3,0,0,0-.66-1.87A2,2,0,0,0,210.16,184.91Z"></path></svg>